# xmcd
#
# Track frame offsets: 
#        150
#        14872
#        25675
#        37700
#        49695
#        60935
#        74452
#        89977
#        102577
#        118365
#        133260
#        143520
#        161605
#        175530
#        186572
#        199925
#        213102
#        222485
#        235792
#        251950
#        265627
#
# Disc length: 3717 seconds
#
# Revision: 0
# Processed by: cddbd v1.5.1PL2 Copyright (c) Steve Scherf et al.
# Submitted via: ExactAudioCopy v0.95b3
#
DISCID=3e0e8315
DTITLE=The Statler Brothers - Gold [CD2]
DYEAR=2006
DGENRE=Country
TTITLE0=Don't Wait On Me
TTITLE1=Years Ago
TTITLE2=You'll Be Back (Every Night In My Dreams)
TTITLE3=Child Of The Fifties
TTITLE4=Oh Baby Mine (I Get So Lonely)
TTITLE5=Guilty
TTITLE6=Elizabeth
TTITLE7=Atlanta Blue
TTITLE8=One Takes The Blame
TTITLE9=My Only Love
TTITLE10=Hello Mary Lou
TTITLE11=Too Much On My Heart
TTITLE12=Sweeter And Sweeter
TTITLE13=Count On Me
TTITLE14=Only You (And You Alone)
TTITLE15=Forever
TTITLE16=I'll Be The One
TTITLE17=The Best I Know How
TTITLE18=Am I Crazy?
TTITLE19=Let's Get Started If We're Gonna Break My Heart
TTITLE20=More Than A Name On A Wall
EXTD=
EXTT0=
EXTT1=
EXTT2=
EXTT3=
EXTT4=
EXTT5=
EXTT6=
EXTT7=
EXTT8=
EXTT9=
EXTT10=
EXTT11=
EXTT12=
EXTT13=
EXTT14=
EXTT15=
EXTT16=
EXTT17=
EXTT18=
EXTT19=
EXTT20=
PLAYORDER=
